<?xml version="1.0" standalone="no"?>
<!DOCTYPE svg PUBLIC "-//W3C//DTD SVG 20010904//EN"
 "http://www.w3.org/TR/2001/REC-SVG-20010904/DTD/svg10.dtd">
<svg version="1.0" xmlns="http://www.w3.org/2000/svg"
 width="96.000000pt" height="96.000000pt" viewBox="0 0 96.000000 96.000000"
 preserveAspectRatio="xMidYMid meet">
<metadata>
Created by potrace 1.14, written by Peter Selinger 2001-2017
</metadata>
<g transform="translate(0.000000,96.000000) scale(0.100000,-0.100000)"
fill="#000000" stroke="none">
<path d="M110 850 c-19 -19 -20 -33 -20 -265 0 -307 -13 -285 170 -285 l131 0
-3 -57 -3 -58 -45 -3 c-50 -4 -70 -16 -70 -43 0 -15 -7 -19 -38 -19 -28 0 -39
-4 -39 -15 0 -13 39 -15 287 -15 248 0 287 2 287 15 0 11 -11 15 -39 15 -31 0
-38 4 -38 19 0 26 -15 34 -70 41 l-45 5 -3 58 -3 57 131 0 c183 0 170 -22 170
285 0 232 -1 246 -20 265 -19 19 -33 20 -370 20 -337 0 -351 -1 -370 -20z
m724 -26 c3 -9 6 -121 6 -249 0 -203 -2 -234 -16 -239 -9 -3 -165 -6 -348 -6
-245 0 -335 3 -344 12 -13 13 -18 451 -6 482 5 14 46 16 354 16 308 0 349 -2
354 -16z m-294 -584 l0 -60 -60 0 -60 0 0 60 0 60 60 0 60 0 0 -60z m118 -107
c3 -10 -37 -13 -177 -13 -155 0 -181 2 -181 15 0 13 24 15 177 13 130 -2 177
-6 181 -15z"/>
<path d="M155 797 c-3 -7 -4 -100 -3 -207 l3 -195 325 0 325 0 0 205 0 205
-323 3 c-256 2 -324 0 -327 -11z m625 -197 l0 -180 -300 0 -300 0 0 180 0 180
300 0 300 0 0 -180z"/>
<path d="M210 703 l0 -47 20 21 c10 12 31 33 45 47 l26 26 -46 0 -45 0 0 -47z"/>
<path d="M480 705 c-7 -8 -27 -15 -46 -15 -48 0 -61 -24 -59 -115 1 -55 5 -79
16 -86 8 -5 48 -9 90 -9 85 0 97 7 104 60 2 17 9 38 16 46 19 23 19 96 1 117
-20 22 -104 24 -122 2z m103 -27 c2 -7 3 -24 1 -38 -1 -14 -3 -29 -3 -33 -1
-5 -20 -7 -43 -5 -42 3 -43 4 -44 38 0 19 1 38 3 43 7 12 81 8 86 -5z m-118
-48 c0 -28 -3 -31 -30 -28 -29 3 -31 7 -26 48 0 6 14 10 29 10 24 0 28 -4 27
-30z m-1 -75 c10 -27 -5 -46 -33 -43 -23 3 -30 18 -22 53 3 12 49 4 55 -10z
m90 -7 c-1 -10 -2 -23 -3 -29 0 -6 -13 -9 -28 -7 -26 3 -32 16 -24 54 1 3 13
4 29 2 18 -2 27 -8 26 -20z"/>
<path d="M630 360 c0 -12 9 -16 30 -16 21 0 30 4 30 16 0 12 -9 17 -30 17 -21
0 -30 -5 -30 -17z"/>
<path d="M720 361 c0 -11 9 -16 30 -16 22 -1 30 3 28 14 -4 21 -58 23 -58 2z"/>
</g>
</svg>
